<svg id="visual" viewBox="0 0 675 30" width="675" height="30" xmlns="http://www.w3.org/2000/svg" xmlns:xlink="http://www.w3.org/1999/xlink" version="1.1"><rect x="0" y="0" width="675" height="30" fill="#fff"></rect><path d="M0 10L16 9.8C32 9.7 64 9.3 96.2 10.5C128.3 11.7 160.7 14.3 192.8 14.8C225 15.3 257 13.7 289.2 14C321.3 14.3 353.7 16.7 385.8 16.3C418 16 450 13 482.2 12.8C514.3 12.7 546.7 15.3 578.8 16C611 16.7 643 15.3 659 14.7L675 14L675 31L659 31C643 31 611 31 578.8 31C546.7 31 514.3 31 482.2 31C450 31 418 31 385.8 31C353.7 31 321.3 31 289.2 31C257 31 225 31 192.8 31C160.7 31 128.3 31 96.2 31C64 31 32 31 16 31L0 31Z" fill="#6885a1"></path><path d="M0 16L16 16.8C32 17.7 64 19.3 96.2 20.5C128.3 21.7 160.7 22.3 192.8 22C225 21.7 257 20.3 289.2 20.5C321.3 20.7 353.7 22.3 385.8 23C418 23.7 450 23.3 482.2 22.5C514.3 21.7 546.7 20.3 578.8 19.8C611 19.3 643 19.7 659 19.8L675 20L675 31L659 31C643 31 611 31 578.8 31C546.7 31 514.3 31 482.2 31C450 31 418 31 385.8 31C353.7 31 321.3 31 289.2 31C257 31 225 31 192.8 31C160.7 31 128.3 31 96.2 31C64 31 32 31 16 31L0 31Z" fill="#13487c"></path></svg>